<svg width="24" height="24" viewBox="0 0 23 24" fill="none" xmlns="http://www.w3.org/2000/svg">
<path d="M0 5.99414C0 3.23271 2.23858 0.994141 5 0.994141H17.0938C19.8552 0.994141 22.0938 3.23272 22.0938 5.99414V18.2372C22.0938 20.9986 19.8552 23.2372 17.0938 23.2372H5C2.23858 23.2372 0 20.9986 0 18.2372V5.99414Z" fill="white"/>
<path d="M16.5245 6.05711C15.5029 5.5879 14.4106 5.2469 13.2687 5.05273C13.1284 5.30165 12.9646 5.63645 12.8516 5.90278C11.6377 5.72356 10.4349 5.72356 9.24331 5.90278C9.13037 5.63645 8.9628 5.30165 8.8213 5.05273C7.67811 5.2469 6.58457 5.58916 5.56302 6.0596C3.50254 9.11624 2.94398 12.097 3.22327 15.0354C4.58988 16.0372 5.91429 16.6458 7.21635 17.0441C7.53784 16.6097 7.82456 16.148 8.07157 15.6614C7.60114 15.4859 7.15057 15.2693 6.72483 15.0179C6.83778 14.9358 6.94826 14.8499 7.055 14.7615C9.65168 15.9538 12.473 15.9538 15.0387 14.7615C15.1467 14.8499 15.2572 14.9358 15.3689 15.0179C14.9419 15.2706 14.4901 15.4871 14.0196 15.6626C14.2666 16.148 14.5521 16.611 14.8749 17.0453C16.1782 16.6471 17.5038 16.0385 18.8704 15.0354C19.1981 11.629 18.3106 8.67566 16.5245 6.05711ZM8.42533 13.2283C7.64583 13.2283 7.00658 12.5139 7.00658 11.6439C7.00658 10.774 7.63218 10.0584 8.42533 10.0584C9.2185 10.0584 9.85773 10.7727 9.84408 11.6439C9.84531 12.5139 9.2185 13.2283 8.42533 13.2283ZM13.6684 13.2283C12.8889 13.2283 12.2496 12.5139 12.2496 11.6439C12.2496 10.774 12.8752 10.0584 13.6684 10.0584C14.4615 10.0584 15.1008 10.7727 15.0871 11.6439C15.0871 12.5139 14.4615 13.2283 13.6684 13.2283Z" fill="#20002C"/>
</svg>
