<svg width="24" height="24" viewBox="0 0 23 25" fill="none" xmlns="http://www.w3.org/2000/svg">
<path d="M20.8382 10.6416C19.9269 9.75962 18.9221 9.19517 18.2211 8.86591C18.3847 8.37202 18.5716 7.73702 18.7585 7.0785C18.9922 6.19655 19.2259 5.14997 19.2259 4.39738C19.2259 3.49191 19.0272 2.58645 18.5015 1.89265C17.9407 1.14005 17.0995 0.740234 16.0947 0.740234C15.3119 0.740234 14.6343 1.03422 14.1202 1.53987C13.6178 2.022 13.2907 2.66876 13.057 3.33904C12.6481 4.51497 12.4962 5.99664 12.4495 7.47832H11.4798C11.433 5.99664 11.2811 4.51497 10.8722 3.33904C10.6385 2.66876 10.3114 2.022 9.80902 1.53987C9.29495 1.03422 8.62899 0.740234 7.83452 0.740234C6.82975 0.740234 5.98854 1.14005 5.43942 1.88089C4.91367 2.58644 4.71505 3.49191 4.71505 4.38562C4.71505 5.14997 4.94872 6.18479 5.18238 7.06674C5.35764 7.72526 5.55625 8.37202 5.71982 8.85415C5.01882 9.18341 4.01404 9.74786 3.10273 10.6298C1.93439 11.7705 0.90625 13.4403 0.90625 15.7569C0.90625 18.1558 1.93439 20.2842 3.87384 21.7894C5.78992 23.2711 8.53553 24.0942 11.9471 24.0942H11.9588C15.3703 24.0942 18.1159 23.2711 20.032 21.7894C21.9715 20.296 22.9996 18.1675 22.9996 15.7569C23.023 13.4403 21.9948 11.7705 20.8382 10.6416ZM8.11492 16.3448C7.46065 16.3448 6.92321 15.7451 6.92321 14.6045C6.92321 13.4638 7.44897 12.8641 8.11492 12.8641C8.7692 12.8641 9.30663 13.4638 9.30663 14.6045C9.30663 15.7451 8.7692 16.3448 8.11492 16.3448ZM15.826 16.3448C15.1717 16.3448 14.6343 15.7451 14.6343 14.6045C14.6343 13.4638 15.16 12.8641 15.826 12.8641C16.4803 12.8641 17.0177 13.4638 17.0177 14.6045C17.0177 15.7451 16.4803 16.3448 15.826 16.3448Z" fill="white"/>
</svg>
