<svg width="38" height="31" viewBox="0 0 38 31" fill="white" xmlns="http://www.w3.org/2000/svg">
<path d="M33.6996 7.70798C33.7232 8.03288 33.7232 8.35784 33.7232 8.68274C33.7232 18.5925 26.0658 30.0108 12.0702 30.0108C7.75849 30.0108 3.75308 28.7807 0.383789 26.6457C0.996407 26.7153 1.58538 26.7385 2.22157 26.7385C5.77928 26.7385 9.05437 25.5549 11.6697 23.5358C8.32397 23.4662 5.52015 21.3079 4.55412 18.3372C5.02539 18.4068 5.49658 18.4532 5.99142 18.4532C6.67468 18.4532 7.35801 18.3604 7.99412 18.198C4.50705 17.5017 1.89166 14.4847 1.89166 10.8411V10.7483C2.90476 11.3053 4.08293 11.6534 5.33159 11.6997C3.28174 10.3536 1.9388 8.05609 1.9388 5.45679C1.9388 4.06434 2.31571 2.78791 2.97547 1.67392C6.72175 6.22266 12.3529 9.19322 18.6673 9.51819C18.5496 8.9612 18.4788 8.38106 18.4788 7.80085C18.4788 3.66979 21.8717 0.304688 26.0892 0.304688C28.2804 0.304688 30.2595 1.20979 31.6497 2.67189C33.3696 2.347 35.0189 1.72035 36.4798 0.861681C35.9142 2.60231 34.7126 4.06441 33.134 4.99266C34.6655 4.83029 36.1499 4.41245 37.5164 3.83231C36.4799 5.31756 35.1839 6.64036 33.6996 7.70798Z"/>
</svg>
